<svg id="Layer_2" data-name="Layer 2" xmlns="http://www.w3.org/2000/svg" viewBox="0 0 505.4 315.84"><defs><style>.cls-1{fill:#6ead43;}</style></defs><title>box-logo</title><path class="cls-1" d="M54,404l47.5-91.5s5-9,15-10.5S298,272.5,298,272.5s6-2,17.5-.5l185,30.5s7.5-.5,12.5,11,43,88,43,88,5,10.5,0,10.5H524s-11-2.5-11,8V532.5s3,15-13,18.5-175,34.5-175,34.5-16.5,4-39,0-166.5-32-166.5-32-18.5,0-18.5-19-2.5-98-2.5-98-1-11,10.5-11S255.5,414,255.5,414s9,1,14.5-10.5,30-63.21,31.5-67.1a13.18,13.18,0,0,1,4.61-5.9l-.11,211s-.5,14.5,14.5,11.5S469,527,469,527s8.5,1.5,8.5-15-1-96-1-96,3-8.5-12-9-87-4.5-87-4.5-14.5.5-22.5-15-41-86-41-86-10.5-11-17,0-39.5,82-39.5,82-.5,10.5-21,12.5S82.5,411.5,65,412.5,54,404,54,404Z" transform="translate(-52.82 -271.44)"/></svg>